<svg width="120" height="120" viewBox="0 0 120 120" fill="none" xmlns="http://www.w3.org/2000/svg">
<path opacity="0.99" d="M119.968 59.9994C119.968 75.86 113.684 91.0747 102.493 102.313C91.3012 113.552 76.1131 119.899 60.2527 119.966C44.3922 120.033 29.1513 113.813 17.8656 102.669C6.57991 91.5252 0.168754 76.3639 0.0353279 60.5039C-0.0980968 44.6439 6.05708 29.3769 17.1537 18.0445C28.2503 6.71201 43.3844 0.237143 59.2438 0.0370071C75.1031 -0.163129 90.3958 5.92777 101.775 16.9766C113.154 28.0254 119.692 43.1322 119.959 58.9905" fill="#DEFFCF" fill-opacity="0.97"/>
<path opacity="0.99" d="M59.6534 18.5744C52.3898 18.6638 45.4582 21.5528 40.376 26.6091C35.2937 31.6654 32.4746 38.4772 32.5357 45.5535C32.5758 49.6771 33.5938 53.7358 35.5102 57.4128C37.4265 61.0898 40.1894 64.2855 43.5831 66.7504C37.2299 69.7672 31.8822 74.4729 28.1573 80.3242C24.4324 86.1755 22.4823 92.9339 22.5322 99.8189C22.5612 101.488 22.7078 103.153 22.9709 104.803C23.9314 105.554 24.9155 106.277 25.9216 106.969C25.3645 104.616 25.0657 102.212 25.0302 99.7982C24.9807 93.1267 26.9431 86.5879 30.674 80.9931C34.4048 75.3983 39.7398 70.9938 46.0171 68.3261C50.2818 70.7963 55.1538 72.095 60.1154 72.0841C65.0006 72.0542 69.7892 70.7556 73.9874 68.3221C80.1271 70.9321 85.368 75.205 89.087 80.6326C92.806 86.0602 94.8466 92.4142 94.966 98.9389L94.9712 99.5118C94.9623 101.996 94.6747 104.471 94.1133 106.894C95.1079 106.244 96.0823 105.565 97.0351 104.859C97.3142 103.089 97.4593 101.302 97.4692 99.5118L97.4641 98.8976C97.3475 92.1683 95.3234 85.6014 91.6154 79.9227C87.9074 74.2439 82.66 69.6744 76.4529 66.7192C76.43 66.7343 76.4071 66.7494 76.3842 66.7645C79.8172 64.2788 82.6067 61.0464 84.5306 57.3248C86.4545 53.6032 87.4596 49.4954 87.4657 45.3285L87.4621 44.8779C87.3398 37.8023 84.345 31.062 79.1332 26.1323C73.9214 21.2026 66.9172 18.485 59.6534 18.5744ZM59.685 21.0064C66.2884 20.9253 72.6558 23.3959 77.3937 27.8775C82.1316 32.3592 84.854 38.4868 84.9651 44.9192L84.9687 45.3285C84.9687 51.7618 82.3525 57.9332 77.6926 62.4918C73.0328 67.0504 66.7089 69.625 60.1051 69.6521C53.5012 69.6792 47.1552 67.1565 42.4562 62.6361C37.7571 58.1158 35.0877 51.9661 35.0322 45.5329C34.9766 39.0998 37.5395 32.9072 42.1598 28.3106C46.7801 23.7139 53.0816 21.0876 59.685 21.0064Z" fill="#1DA042" stroke="#1DA042" stroke-width="2" stroke-linecap="round"/>
</svg>
