<svg width="23" height="26" viewBox="0 0 23 26" fill="none" xmlns="http://www.w3.org/2000/svg">
<path d="M13.8872 21.2424H15.0766C15.2343 21.2424 15.3856 21.1797 15.4971 21.0682C15.6086 20.9567 15.6713 20.8054 15.6713 20.6477V9.943C15.6713 9.78528 15.6086 9.63401 15.4971 9.52248C15.3856 9.41095 15.2343 9.3483 15.0766 9.3483H13.8872C13.7295 9.3483 13.5782 9.41095 13.4667 9.52248C13.3551 9.63401 13.2925 9.78528 13.2925 9.943V20.6477C13.2925 20.8054 13.3551 20.9567 13.4667 21.0682C13.5782 21.1797 13.7295 21.2424 13.8872 21.2424ZM22.0148 4.59067H17.9307L16.2457 1.78069C16.0342 1.42834 15.7351 1.13677 15.3774 0.934408C15.0198 0.732043 14.6158 0.625781 14.2049 0.625977H9.20835C8.79758 0.625952 8.39381 0.732296 8.03634 0.934652C7.67887 1.13701 7.37989 1.42848 7.16852 1.78069L5.48253 4.59067H1.39841C1.18811 4.59067 0.98642 4.67421 0.837715 4.82291C0.68901 4.97162 0.605469 5.17331 0.605469 5.38361L0.605469 6.17654C0.605469 6.38684 0.68901 6.58853 0.837715 6.73724C0.98642 6.88594 1.18811 6.96948 1.39841 6.96948H2.19135V23.6212C2.19135 24.2521 2.44197 24.8571 2.88808 25.3033C3.3342 25.7494 3.93926 26 4.57016 26H18.8431C19.474 26 20.079 25.7494 20.5251 25.3033C20.9712 24.8571 21.2219 24.2521 21.2219 23.6212V6.96948H22.0148C22.2251 6.96948 22.4268 6.88594 22.5755 6.73724C22.7242 6.58853 22.8077 6.38684 22.8077 6.17654V5.38361C22.8077 5.17331 22.7242 4.97162 22.5755 4.82291C22.4268 4.67421 22.2251 4.59067 22.0148 4.59067ZM9.12163 3.14901C9.14813 3.1049 9.18562 3.06842 9.23045 3.04314C9.27527 3.01786 9.32589 3.00465 9.37735 3.00479H14.0359C14.0872 3.00473 14.1378 3.01799 14.1825 3.04326C14.2272 3.06854 14.2646 3.10497 14.2911 3.14901L15.1564 4.59067H8.25683L9.12163 3.14901ZM18.8431 23.6212H4.57016V6.96948H18.8431V23.6212ZM8.33662 21.2424H9.52602C9.68375 21.2424 9.83501 21.1797 9.94654 21.0682C10.0581 20.9567 10.1207 20.8054 10.1207 20.6477V9.943C10.1207 9.78528 10.0581 9.63401 9.94654 9.52248C9.83501 9.41095 9.68375 9.3483 9.52602 9.3483H8.33662C8.17889 9.3483 8.02763 9.41095 7.9161 9.52248C7.80457 9.63401 7.74191 9.78528 7.74191 9.943V20.6477C7.74191 20.8054 7.80457 20.9567 7.9161 21.0682C8.02763 21.1797 8.17889 21.2424 8.33662 21.2424Z" fill="#7D8580"/>
</svg>
