<svg width="415" height="324" viewBox="0 0 415 324" fill="none" xmlns="http://www.w3.org/2000/svg">
<path d="M250.301 323.819C159.641 323.819 86.147 311.021 86.147 295.233C86.147 279.445 159.641 266.647 250.301 266.647C340.96 266.647 414.455 279.445 414.455 295.233C414.455 311.021 340.96 323.819 250.301 323.819Z" fill="#E6E6E6"/>
<path d="M38.9407 302.588H342.644C345.344 302.588 347.935 301.515 349.844 299.606C351.754 297.696 352.827 295.106 352.827 292.405C242.735 279.61 134.712 279.61 28.7574 292.405C28.7574 295.106 29.8303 297.696 31.74 299.606C33.6498 301.515 36.24 302.588 38.9407 302.588Z" fill="#2F2E41"/>
<path d="M28.7574 293.004L352.827 292.405L315.268 229.208L315.089 228.909V89.6307C315.089 87.9402 314.756 86.2662 314.109 84.7043C313.462 83.1424 312.514 81.7233 311.319 80.5279C310.123 79.3325 308.704 78.3843 307.142 77.7374C305.58 77.0905 303.906 76.7577 302.216 76.7578H81.1656C79.4751 76.7577 77.8011 77.0905 76.2392 77.7374C74.6773 78.3843 73.2582 79.3325 72.0628 80.5279C70.8674 81.7233 69.9192 83.1424 69.2723 84.7043C68.6254 86.2662 68.2926 87.9402 68.2927 89.6307V229.867L28.7574 293.004Z" fill="#3F3D56"/>
<path d="M302.509 85.743C303.621 85.7443 304.687 86.1865 305.473 86.9726C306.259 87.7587 306.701 88.8245 306.702 89.9362V216.928C306.701 218.04 306.259 219.106 305.473 219.892C304.687 220.678 303.621 221.12 302.509 221.121H79.0749C77.9633 221.12 76.8975 220.678 76.1114 219.892C75.3254 219.106 74.8831 218.04 74.8818 216.928V89.9362C74.8831 88.8245 75.3253 87.7587 76.1114 86.9726C76.8974 86.1865 77.9632 85.7443 79.0749 85.743H302.509Z" fill="white"/>
<path d="M301.573 237.894C301.917 237.895 302.253 237.993 302.542 238.179C302.831 238.364 303.062 238.628 303.206 238.94L314.779 264.099C314.905 264.373 314.96 264.674 314.939 264.974C314.918 265.275 314.822 265.566 314.659 265.819C314.497 266.073 314.273 266.282 314.009 266.427C313.744 266.571 313.448 266.647 313.146 266.647H69.7734C69.4671 266.647 69.1658 266.569 68.8983 266.42C68.6308 266.27 68.4058 266.055 68.2448 265.795C68.0838 265.534 67.992 265.237 67.9783 264.931C67.9646 264.625 68.0294 264.32 68.1664 264.046L80.7459 238.887C80.8943 238.588 81.1234 238.337 81.4074 238.161C81.6914 237.986 82.0189 237.893 82.3528 237.894H301.573Z" fill="#2F2E41"/>
<path d="M191.691 83.6465C190.202 83.6465 188.995 82.4397 188.995 80.951C188.995 79.4622 190.202 78.2554 191.691 78.2554C193.179 78.2554 194.386 79.4622 194.386 80.951C194.386 82.4397 193.179 83.6465 191.691 83.6465Z" fill="white"/>
<path d="M215.612 271.439C216.007 271.44 216.391 271.57 216.704 271.81C217.018 272.051 217.244 272.388 217.347 272.769L220.25 283.551C220.322 283.818 220.331 284.097 220.278 284.367C220.224 284.638 220.109 284.893 219.941 285.112C219.774 285.331 219.558 285.508 219.31 285.63C219.063 285.752 218.791 285.816 218.515 285.816H163.307C163.021 285.816 162.738 285.747 162.484 285.616C162.229 285.485 162.01 285.294 161.843 285.061C161.677 284.828 161.569 284.558 161.529 284.274C161.488 283.991 161.516 283.701 161.61 283.431L165.342 272.648C165.464 272.295 165.693 271.989 165.998 271.773C166.302 271.556 166.666 271.439 167.04 271.439H215.612Z" fill="#2F2E41"/>
<path d="M68.2927 226.812V229.208H315.268L315.083 228.909V226.812H68.2927Z" fill="#2F2E41"/>
<path d="M1.56708 68.0425C1.56708 104.28 30.9433 133.656 67.1808 133.656C103.418 133.656 132.795 104.28 132.795 68.0425C132.795 31.805 103.418 2.42871 67.1808 2.42871C30.9433 2.42871 1.56708 31.805 1.56708 68.0425Z" fill="#8CE269" stroke="white" stroke-width="3"/>
<path d="M39.3776 97.2849H94.9862C96.003 97.2839 96.9779 96.8796 97.6969 96.1606C98.4159 95.4416 98.8203 94.4667 98.8213 93.4499V59.8929C98.8202 58.8761 98.4158 57.9013 97.6968 57.1823C96.9778 56.4633 96.003 56.0589 94.9862 56.0579H39.3776C38.3608 56.0589 37.386 56.4633 36.667 57.1823C35.948 57.9013 35.5436 58.8761 35.5425 59.8929V93.4498C35.5435 94.4667 35.948 95.4416 36.6669 96.1606C37.3859 96.8796 38.3608 97.2839 39.3776 97.2849ZM94.9862 59.893V93.4499H39.3748L39.3776 59.8929L94.9862 59.893Z" fill="white"/>
<path d="M49.9236 59.8929H84.4393V44.5526C84.4393 33.4415 77.1812 25.3772 67.1815 25.3772C57.1818 25.3772 49.9237 33.4415 49.9237 44.5526L49.9236 59.8929ZM80.6043 56.0578H53.7587V44.5526C53.7587 35.5205 59.2782 29.2123 67.1814 29.2123C75.0847 29.2123 80.6042 35.5206 80.6042 44.5526L80.6043 56.0578Z" fill="white"/>
<path d="M67.1815 79.5476C65.0635 79.5476 63.3465 77.8306 63.3465 75.7125C63.3465 73.5945 65.0635 71.8774 67.1815 71.8774C69.2996 71.8774 71.0166 73.5945 71.0166 75.7125C71.0166 77.8306 69.2996 79.5476 67.1815 79.5476Z" fill="white"/>
<path d="M104.453 178.047H277.131C277.979 178.046 278.792 177.709 279.391 177.109C279.991 176.51 280.328 175.697 280.329 174.849V132.015C280.328 131.167 279.991 130.355 279.391 129.755C278.792 129.156 277.979 128.819 277.131 128.818H104.453C103.605 128.819 102.792 129.156 102.193 129.755C101.594 130.355 101.256 131.167 101.255 132.015V174.849C101.256 175.697 101.594 176.51 102.193 177.109C102.792 177.709 103.605 178.046 104.453 178.047V178.047ZM277.131 130.097C277.64 130.097 278.128 130.3 278.487 130.659C278.847 131.019 279.049 131.507 279.05 132.015V174.849C279.049 175.358 278.847 175.846 278.487 176.205C278.128 176.565 277.64 176.767 277.131 176.768H104.453C103.944 176.767 103.457 176.565 103.097 176.205C102.737 175.846 102.535 175.358 102.534 174.849V132.015C102.535 131.507 102.737 131.019 103.097 130.659C103.457 130.299 103.944 130.097 104.453 130.097L277.131 130.097Z" fill="#E6E6E6"/>
<path d="M250.301 164.815C243.107 164.815 237.275 158.983 237.275 151.789C237.275 144.595 243.107 138.763 250.301 138.763C257.495 138.763 263.327 144.595 263.327 151.789C263.327 158.983 257.495 164.815 250.301 164.815Z" fill="#E6E6E6"/>
<path d="M220.217 143.105C220.502 143.104 220.785 143.16 221.049 143.269C221.312 143.378 221.552 143.538 221.754 143.74C221.956 143.941 222.116 144.181 222.226 144.444C222.335 144.708 222.391 144.99 222.391 145.276C222.391 145.561 222.335 145.844 222.226 146.107C222.116 146.371 221.956 146.611 221.754 146.812C221.552 147.014 221.312 147.174 221.049 147.283C220.785 147.391 220.502 147.447 220.217 147.447H117.871C117.295 147.447 116.743 147.218 116.335 146.811C115.928 146.404 115.7 145.852 115.7 145.276C115.7 144.7 115.928 144.148 116.335 143.741C116.743 143.334 117.295 143.105 117.871 143.105H220.217Z" fill="#E6E6E6"/>
<path d="M220.217 156.131C220.793 156.131 221.345 156.359 221.752 156.767C222.159 157.174 222.388 157.726 222.388 158.302C222.388 158.877 222.159 159.43 221.752 159.837C221.345 160.244 220.793 160.473 220.217 160.473H176.177C175.601 160.473 175.049 160.244 174.642 159.837C174.235 159.43 174.006 158.877 174.006 158.302C174.006 157.726 174.235 157.174 174.642 156.767C175.049 156.359 175.601 156.131 176.177 156.131H220.217Z" fill="#E6E6E6"/>
</svg>
