<svg width="169" height="93" viewBox="0 0 169 93" fill="none" xmlns="http://www.w3.org/2000/svg">
<path d="M76.0503 15.3215L44.4872 69.9873C43.8138 71.1565 43.4597 72.4822 43.4605 73.8315C43.4612 75.1808 43.8168 76.5061 44.4915 77.6746C45.1662 78.843 46.1363 79.8135 47.3045 80.4886C48.4727 81.1638 49.798 81.5198 51.1472 81.521H114.273C115.624 81.5219 116.95 81.1672 118.119 80.4926C119.289 79.818 120.26 78.8473 120.935 77.6781C121.61 76.5089 121.966 75.1825 121.965 73.8325C121.965 72.4824 121.609 71.1562 120.933 69.9873L89.3703 15.3215C88.6947 14.1533 87.7236 13.1834 86.5546 12.5091C85.3856 11.8348 84.0599 11.4799 82.7103 11.4799C81.3608 11.4799 80.035 11.8348 78.866 12.5091C77.697 13.1834 76.726 14.1533 76.0503 15.3215Z" fill="white" fill-opacity="0.6" stroke="#C4C4C4" stroke-width="1.2" stroke-linecap="round" stroke-linejoin="round"/>
<path d="M79.5664 15.3215L48.0033 69.9873C47.3299 71.1565 46.9758 72.4822 46.9766 73.8315C46.9773 75.1808 47.3329 76.5061 48.0076 77.6746C48.6823 78.843 49.6524 79.8135 50.8206 80.4886C51.9888 81.1638 53.3141 81.5198 54.6633 81.521H117.79C119.14 81.5219 120.466 81.1672 121.636 80.4926C122.805 79.818 123.776 78.8473 124.451 77.6781C125.126 76.5089 125.482 75.1825 125.481 73.8325C125.481 72.4824 125.125 71.1562 124.45 69.9873L92.8865 15.3215C92.2108 14.1533 91.2397 13.1834 90.0707 12.5091C88.9017 11.8348 87.576 11.4799 86.2264 11.4799C84.8769 11.4799 83.5511 11.8348 82.3821 12.5091C81.2132 13.1834 80.2421 14.1533 79.5664 15.3215Z" fill="#F2F2F2" stroke="#C4C4C4" stroke-width="1.2" stroke-linecap="round" stroke-linejoin="round"/>
<path d="M54.6638 75.9158C54.3023 75.9143 53.9474 75.8181 53.6347 75.6367C53.3219 75.4553 53.0622 75.195 52.8814 74.8819C52.7007 74.5688 52.6052 74.2137 52.6045 73.8521C52.6038 73.4906 52.6979 73.1352 52.8775 72.8214L84.4406 18.1556C84.6212 17.8415 84.8814 17.5806 85.195 17.3992C85.5087 17.2177 85.8646 17.1222 86.2269 17.1222C86.5892 17.1222 86.9452 17.2177 87.2588 17.3992C87.5724 17.5806 87.8326 17.8415 88.0132 18.1556L119.576 72.8214C119.756 73.1352 119.85 73.4906 119.849 73.8521C119.849 74.2137 119.753 74.5688 119.572 74.8819C119.392 75.195 119.132 75.4553 118.819 75.6367C118.506 75.8181 118.152 75.9143 117.79 75.9158H54.6638Z" fill="#C4C4C4" stroke="#C4C4C4" stroke-width="1.2" stroke-linecap="round" stroke-linejoin="round"/>
<path d="M80.7061 36.8558H91.7475L88.9836 58.9458H83.4699L80.7061 36.8558Z" fill="white" fill-opacity="0.6" stroke="#C4C4C4" stroke-width="1.2" stroke-linecap="round" stroke-linejoin="round"/>
<path d="M86.2266 70.7679C88.1842 70.7679 89.7712 69.1809 89.7712 67.2234C89.7712 65.2658 88.1842 63.6788 86.2266 63.6788C84.2691 63.6788 82.6821 65.2658 82.6821 67.2234C82.6821 69.1809 84.2691 70.7679 86.2266 70.7679Z" fill="white" fill-opacity="0.6" stroke="#C4C4C4" stroke-width="1.2" stroke-linecap="round" stroke-linejoin="round"/>
</svg>
