<svg width="362" height="174" viewBox="0 0 362 174" fill="none" xmlns="http://www.w3.org/2000/svg">
<path d="M307.108 69.3931C303.657 58.5828 298.391 48.6066 291.669 39.7751" stroke="#1DA042" stroke-width="1.2" stroke-miterlimit="10" stroke-linecap="round" stroke-linejoin="round"/>
<path d="M276.819 24.2057C259.745 9.81374 237.7 1.14587 213.609 1.14587C177.319 1.14587 145.64 20.8367 128.648 50.1275" stroke="#1DA042" stroke-width="1.2" stroke-miterlimit="10" stroke-linecap="round" stroke-linejoin="round"/>
<path d="M297.263 89.9507C292.618 47.8543 256.949 15.1127 213.61 15.1127C185.742 15.1127 161.046 28.6542 145.722 49.5061" stroke="#1DA042" stroke-width="1.2" stroke-miterlimit="10" stroke-linecap="round" stroke-linejoin="round"/>
<path d="M283.787 99.2727C283.787 86.9905 280.631 75.4442 275.086 65.4026" stroke="#1DA042" stroke-width="1.2" stroke-miterlimit="10" stroke-linecap="round" stroke-linejoin="round"/>
<path d="M256.018 43.3568C244.242 34.4109 229.54 29.0957 213.611 29.0957C193.086 29.0957 174.621 37.9108 161.783 51.9592" stroke="#1DA042" stroke-width="1.2" stroke-miterlimit="10" stroke-linecap="round" stroke-linejoin="round"/>
<path d="M269.821 99.2729C269.821 87.0725 265.928 75.7879 259.337 66.564" stroke="#1DA042" stroke-width="1.2" stroke-miterlimit="10" stroke-linecap="round" stroke-linejoin="round"/>
<path d="M246.025 53.3495C236.866 46.8731 225.68 43.0625 213.61 43.0625C198.139 43.0625 184.107 49.3263 173.951 59.4497" stroke="#1DA042" stroke-width="1.2" stroke-miterlimit="10" stroke-linecap="round" stroke-linejoin="round"/>
<path d="M255.837 99.2726C255.837 75.9512 236.931 57.0454 213.61 57.0454C212.858 57.0454 212.105 57.0618 211.353 57.1108" stroke="#1DA042" stroke-width="1.2" stroke-miterlimit="10" stroke-linecap="round" stroke-linejoin="round"/>
<path d="M83.625 65.7135C87.1903 62.1482 89.5453 59.7932 89.5453 59.7932C95.6782 53.6603 104.003 50.2095 112.671 50.2095H150.989C159.657 50.2095 167.981 53.6603 174.114 59.7932C174.114 59.7932 177.794 63.473 182.897 68.5755" stroke="#1DA042" stroke-width="1.2" stroke-miterlimit="10" stroke-linecap="round" stroke-linejoin="round"/>
<path d="M210.094 95.7566C212.269 97.9317 213.61 99.2728 213.61 99.2728H292.586" stroke="#1DA042" stroke-width="1.2" stroke-miterlimit="10" stroke-linecap="round" stroke-linejoin="round"/>
<path d="M289.527 14.0005C289.527 6.90264 295.284 1.14587 302.382 1.14587C309.48 1.14587 315.237 6.90264 315.237 14.0005C322.335 14.0005 328.091 19.7573 328.091 26.8551C328.091 33.9529 322.335 39.7097 315.237 39.7097H289.527C282.43 39.7097 276.673 33.9529 276.673 26.8551C276.689 19.7573 282.43 14.0005 289.527 14.0005Z" fill="#8CE269" stroke="#1DA042" stroke-width="1.2" stroke-miterlimit="10" stroke-linecap="round" stroke-linejoin="round"/>
<path d="M252.861 49.8823C252.861 45.2703 256.59 41.5415 261.202 41.5415C265.814 41.5415 269.542 45.2703 269.542 49.8823C274.154 49.8823 277.883 53.6111 277.883 58.2231C277.883 62.835 274.154 66.5638 269.542 66.5638H252.861C248.249 66.5638 244.52 62.835 244.52 58.2231C244.52 53.6111 248.249 49.8823 252.861 49.8823Z" fill="#8CE269" stroke="#1DA042" stroke-width="1.2" stroke-miterlimit="10" stroke-linecap="round" stroke-linejoin="round"/>
<path d="M298.31 88.9204C297.607 87.2196 297.214 85.3388 297.214 83.3763C297.214 75.3462 303.723 68.8535 311.737 68.8535C319.767 68.8535 326.26 75.3626 326.26 83.3763C326.26 85.3388 325.867 87.2032 325.164 88.9204C328.648 92.3712 330.79 97.1467 330.79 102.446C330.79 112.978 322.253 121.499 311.737 121.499C301.205 121.499 292.684 112.962 292.684 102.446C292.684 97.1631 294.827 92.3712 298.31 88.9204Z" fill="#1DA042" stroke="#1DA042" stroke-width="1.2" stroke-miterlimit="10" stroke-linecap="round" stroke-linejoin="round"/>
<path d="M311.737 105.553V140.437" stroke="#1DA042" stroke-width="1.2" stroke-miterlimit="10" stroke-linecap="round" stroke-linejoin="round"/>
<path d="M183.829 67.4795C183.126 65.7787 182.733 63.8979 182.733 61.9354C182.733 53.9053 189.242 47.4126 197.256 47.4126C205.286 47.4126 211.779 53.9217 211.779 61.9354C211.779 63.8979 211.386 65.7623 210.683 67.4795C214.167 70.9303 216.309 75.7058 216.309 81.0047C216.309 91.537 207.772 100.058 197.256 100.058C186.724 100.058 178.203 91.5206 178.203 81.0047C178.203 75.7222 180.346 70.9303 183.829 67.4795Z" fill="#1DA042" stroke="#1DA042" stroke-width="1.2" stroke-miterlimit="10" stroke-linecap="round" stroke-linejoin="round"/>
<path d="M197.255 82.6567V117.541" stroke="#1DA042" stroke-width="1.2" stroke-miterlimit="10" stroke-linecap="round" stroke-linejoin="round"/>
<path d="M67.0732 121.548C67.0732 121.548 79.6989 121.548 92.4554 121.548" stroke="#1DA042" stroke-width="1.2" stroke-miterlimit="10" stroke-linecap="round" stroke-linejoin="round"/>
<path d="M123.48 107.172C123.48 99.2727 123.48 89.2965 123.48 89.2965C123.48 86.598 121.272 84.3902 118.574 84.3902H87.8438L81.2857 58.1739C80.6315 55.5572 77.8839 53.4148 75.1854 53.4148H39.1402C36.4417 53.4148 33.6942 55.5572 33.04 58.1739L26.1875 85.6331H15.9169L12.4497 99.518H23.4563" stroke="#1DA042" stroke-width="1.2" stroke-miterlimit="10" stroke-linecap="round" stroke-linejoin="round"/>
<path d="M42.9179 140.159C56.6066 140.159 67.7113 129.054 67.7113 115.366C67.7113 101.677 56.6066 90.5723 42.9179 90.5723C29.2292 90.5723 18.1245 101.677 18.1245 115.366C18.1245 129.054 29.2292 140.159 42.9179 140.159Z" fill="#1DA042" stroke="#1DA042" stroke-width="1.2" stroke-miterlimit="10" stroke-linecap="round" stroke-linejoin="round"/>
<path d="M111.084 140.159C121.355 140.159 129.679 131.834 129.679 121.564C129.679 111.293 121.355 102.969 111.084 102.969C100.814 102.969 92.4893 111.293 92.4893 121.564C92.4893 131.834 100.814 140.159 111.084 140.159Z" fill="#1DA042" stroke="#1DA042" stroke-width="1.2" stroke-miterlimit="10" stroke-linecap="round" stroke-linejoin="round"/>
<path d="M111.084 127.762C114.502 127.762 117.282 124.982 117.282 121.564C117.282 118.146 114.502 115.365 111.084 115.365C107.666 115.365 104.886 118.146 104.886 121.564C104.886 124.982 107.666 127.762 111.084 127.762Z" fill="white" stroke="#1DA042" stroke-width="1.2" stroke-miterlimit="10" stroke-linecap="round" stroke-linejoin="round"/>
<path d="M42.9186 133.388C52.8785 133.388 60.9413 125.325 60.9413 115.365C60.9413 105.406 52.8785 97.3428 42.9186 97.3428C32.9588 97.3428 24.896 105.406 24.896 115.365C24.896 125.325 32.9588 133.388 42.9186 133.388Z" fill="#1DA042" stroke="#1DA042" stroke-width="1.2" stroke-miterlimit="10" stroke-linecap="round" stroke-linejoin="round"/>
<path d="M42.9186 121.564C46.3366 121.564 49.1169 118.784 49.1169 115.366C49.1169 111.947 46.3366 109.167 42.9186 109.167C39.5005 109.167 36.7202 111.947 36.7202 115.366C36.7202 118.784 39.5005 121.564 42.9186 121.564Z" fill="white" stroke="#1DA042" stroke-width="1.2" stroke-miterlimit="10" stroke-linecap="round" stroke-linejoin="round"/>
<path d="M71.0638 96.787H84.5563L75.2506 59.5969H39.0745L32.5654 85.6332H68.2672L71.0638 96.787Z" fill="#8CE269" stroke="#1DA042" stroke-width="1.2" stroke-miterlimit="10" stroke-linecap="round" stroke-linejoin="round"/>
<path d="M96.937 96.787V87.8901" stroke="#1DA042" stroke-width="1.2" stroke-miterlimit="10" stroke-linecap="round" stroke-linejoin="round"/>
<path d="M103.135 96.787V87.8901" stroke="#1DA042" stroke-width="1.2" stroke-miterlimit="10" stroke-linecap="round" stroke-linejoin="round"/>
<path d="M109.333 96.787V87.8901" stroke="#1DA042" stroke-width="1.2" stroke-miterlimit="10" stroke-linecap="round" stroke-linejoin="round"/>
<path d="M115.532 96.787V87.8901" stroke="#1DA042" stroke-width="1.2" stroke-miterlimit="10" stroke-linecap="round" stroke-linejoin="round"/>
<path d="M109.333 69.7529H103.135V84.3902H109.333V69.7529Z" fill="#8CE269" stroke="#1DA042" stroke-width="1.2" stroke-miterlimit="10" stroke-linecap="round" stroke-linejoin="round"/>
<path d="M106.243 69.4423V60.8889C106.243 58.7138 107.993 56.9639 110.168 56.9639" stroke="#1DA042" stroke-width="1.2" stroke-miterlimit="10" stroke-linecap="round" stroke-linejoin="round"/>
<path d="M1.00195 156.513C1.00195 147.486 8.32875 140.159 17.3564 140.159H144.921" stroke="#1DA042" stroke-width="1.2" stroke-miterlimit="10" stroke-linecap="round" stroke-linejoin="round"/>
<path d="M279.682 117.917H198.367C191.842 117.917 185.594 120.321 180.983 124.622L163.598 140.813H158.659" stroke="#1DA042" stroke-width="1.2" stroke-miterlimit="10" stroke-linecap="round" stroke-linejoin="round"/>
<path d="M262.673 140.437C262.673 133.666 268.168 128.171 274.939 128.171C281.71 128.171 287.205 133.666 287.205 140.437" fill="#8CE269"/>
<path d="M262.673 140.437C262.673 133.666 268.168 128.171 274.939 128.171C281.71 128.171 287.205 133.666 287.205 140.437" stroke="#1DA042" stroke-width="1.2" stroke-miterlimit="10" stroke-linecap="round" stroke-linejoin="round"/>
<path d="M238.142 140.437C238.142 133.666 243.637 128.171 250.407 128.171C257.178 128.171 262.673 133.666 262.673 140.437" fill="#8CE269"/>
<path d="M238.142 140.437C238.142 133.666 243.637 128.171 250.407 128.171C257.178 128.171 262.673 133.666 262.673 140.437" stroke="#1DA042" stroke-width="1.2" stroke-miterlimit="10" stroke-linecap="round" stroke-linejoin="round"/>
<path d="M213.61 140.437C213.61 133.666 219.105 128.171 225.876 128.171C232.647 128.171 238.142 133.666 238.142 140.437" fill="#8CE269"/>
<path d="M213.61 140.437C213.61 133.666 219.105 128.171 225.876 128.171C232.647 128.171 238.142 133.666 238.142 140.437" stroke="#1DA042" stroke-width="1.2" stroke-miterlimit="10" stroke-linecap="round" stroke-linejoin="round"/>
<path d="M189.079 140.437C189.079 133.666 194.574 128.171 201.344 128.171C208.115 128.171 213.61 133.666 213.61 140.437" fill="#8CE269"/>
<path d="M189.079 140.437C189.079 133.666 194.574 128.171 201.344 128.171C208.115 128.171 213.61 133.666 213.61 140.437" stroke="#1DA042" stroke-width="1.2" stroke-miterlimit="10" stroke-linecap="round" stroke-linejoin="round"/>
<path d="M287.205 140.437C287.205 133.666 292.7 128.171 299.471 128.171C306.242 128.171 311.737 133.666 311.737 140.437" fill="#8CE269"/>
<path d="M287.205 140.437C287.205 133.666 292.7 128.171 299.471 128.171C306.242 128.171 311.737 133.666 311.737 140.437" stroke="#1DA042" stroke-width="1.2" stroke-miterlimit="10" stroke-linecap="round" stroke-linejoin="round"/>
<path d="M312.088 140.275C312.088 133.504 317.583 128.009 324.354 128.009C331.124 128.009 336.62 133.504 336.62 140.275" fill="#8CE269"/>
<path d="M312.088 140.275C312.088 133.504 317.583 128.009 324.354 128.009C331.124 128.009 336.62 133.504 336.62 140.275" stroke="#1DA042" stroke-width="1.2" stroke-miterlimit="10" stroke-linecap="round" stroke-linejoin="round"/>
<path d="M336.466 140.275C336.466 133.504 341.961 128.009 348.732 128.009C355.502 128.009 360.998 133.504 360.998 140.275" fill="#8CE269"/>
<path d="M336.466 140.275C336.466 133.504 341.961 128.009 348.732 128.009C355.502 128.009 360.998 133.504 360.998 140.275" stroke="#1DA042" stroke-width="1.2" stroke-miterlimit="10" stroke-linecap="round" stroke-linejoin="round"/>
<path d="M184.172 173.146H318.753" stroke="#1DA042" stroke-width="1.2" stroke-miterlimit="10" stroke-linecap="round" stroke-linejoin="round"/>
</svg>
