<svg width="267" height="173" viewBox="0 0 267 173" fill="none" xmlns="http://www.w3.org/2000/svg">
<path d="M102.298 82.4997C102.298 63.7766 87.0865 48.5981 68.3223 48.5981C49.558 48.5981 34.3462 63.7766 34.3462 82.4997C15.5819 82.4997 0.370117 97.6782 0.370117 116.401C0.370117 135.124 15.5819 150.303 34.3462 150.303H102.298C121.063 150.303 136.274 135.124 136.274 116.401C136.32 97.6782 121.108 82.4997 102.298 82.4997Z" fill="#C4C4C4" fill-opacity="0.8"/>
<path d="M216.411 49.9573C216.411 22.755 194.31 0.702637 167.048 0.702637C139.786 0.702637 117.685 22.755 117.685 49.9573C90.4231 49.9573 68.3223 72.0096 68.3223 99.2119C68.3223 126.414 90.4231 148.467 117.685 148.467H216.411C243.673 148.467 265.774 126.414 265.774 99.2119C265.84 72.0096 243.739 49.9573 216.411 49.9573Z" fill="#ADE696" stroke="white" stroke-miterlimit="10" stroke-linecap="round" stroke-linejoin="round"/>
<path d="M160.776 45.2319L209.214 129.128L160.776 113.835L112.339 129.128L160.776 45.2319Z" fill="#48CC6E"/>
<rect x="145.351" y="113.711" width="30.8509" height="58.8102" fill="#48CC6E"/>
</svg>
