<svg width="144" height="139" viewBox="0 0 144 139" fill="none" xmlns="http://www.w3.org/2000/svg">
<g filter="url(#filter0_d_1914_88)">
<ellipse cx="74.0059" cy="80.5" rx="49" ry="50.5" fill="#D6FDC6"/>
</g>
<path d="M42.6566 16.4951H105.506C107.991 16.4951 110.006 18.5098 110.006 20.9951V112.081C110.006 113.193 109.595 114.267 108.851 115.093C105.115 119.237 102.469 121.932 95.7944 125.047C94.2209 125.781 92.9065 126.495 91.7043 127.148C91.4612 127.28 91.2226 127.41 90.9874 127.536C89.5851 128.292 88.3007 128.948 86.8389 129.466C83.929 130.497 80.2558 130.999 73.5428 130.501C60.7781 129.556 50.7832 126.371 42.1948 118.001C41.4155 117.242 40.982 116.188 40.949 115.079L38.1586 21.1287C38.0832 18.5922 40.1189 16.4951 42.6566 16.4951Z" fill="#FDF8EC" stroke="#C4C4C4"/>
<path d="M113.981 11.0066C114.534 11.006 114.983 11.4553 114.982 12.0089L114.936 31.5915C114.935 32.0803 114.58 32.4966 114.098 32.5759L105.377 34.01C105.21 34.0375 105.039 34.0221 104.879 33.9652L96.2326 30.8831C95.998 30.7995 95.803 30.6313 95.6859 30.4116L90.7044 21.0661C90.5953 20.8614 90.5607 20.6252 90.6066 20.3979L92.3352 11.8292C92.4293 11.3629 92.8388 11.0274 93.3145 11.027L113.981 11.0066Z" fill="#FDF8EC"/>
<line x1="93.0059" y1="11" x2="116.006" y2="11" stroke="#C4C4C4" stroke-width="2"/>
<line x1="115.006" y1="11" x2="115.006" y2="32" stroke="#C4C4C4" stroke-width="2"/>
<circle cx="107.533" cy="17.7808" r="16.2808" stroke="#3DD969" stroke-width="3"/>
<line x1="117.684" y1="31.5256" x2="120.233" y2="35.5131" stroke="#1DA042"/>
<line x1="120.306" y1="35.4988" x2="123.55" y2="40.6566" stroke="#1DA042" stroke-width="5" stroke-linecap="round"/>
<rect x="45.0059" y="85" width="50" height="4" fill="#F2F2F2"/>
<rect x="45.0059" y="95" width="58" height="4" fill="#F2F2F2"/>
<rect x="45.0059" y="105" width="41" height="4" fill="#F2F2F2"/>
<mask id="path-12-inside-1_1914_88" fill="white">
<path fill-rule="evenodd" clip-rule="evenodd" d="M25.0082 81C25.0066 81.1665 25.0059 81.3331 25.0059 81.5C25.0059 109.39 46.9439 132 74.0059 132C101.068 132 123.006 109.39 123.006 81.5C123.006 81.3331 123.005 81.1665 123.004 81H119.003C119.005 81.1665 119.006 81.3331 119.006 81.5C119.006 107.296 98.7458 128 74.0059 128C49.2659 128 29.0059 107.296 29.0059 81.5C29.0059 81.3331 29.0067 81.1665 29.0084 81H25.0082Z"/>
</mask>
<path fill-rule="evenodd" clip-rule="evenodd" d="M25.0082 81C25.0066 81.1665 25.0059 81.3331 25.0059 81.5C25.0059 109.39 46.9439 132 74.0059 132C101.068 132 123.006 109.39 123.006 81.5C123.006 81.3331 123.005 81.1665 123.004 81H119.003C119.005 81.1665 119.006 81.3331 119.006 81.5C119.006 107.296 98.7458 128 74.0059 128C49.2659 128 29.0059 107.296 29.0059 81.5C29.0059 81.3331 29.0067 81.1665 29.0084 81H25.0082Z" fill="#D4F6C6"/>
<path d="M25.0082 81V77H21.0457L21.0084 80.9624L25.0082 81ZM123.004 81L127.003 80.9624L126.966 77H123.004V81ZM119.003 81V77H114.962L115.004 81.0407L119.003 81ZM29.0084 81L33.0082 81.0406L33.0493 77H29.0084V81ZM21.0084 80.9624C21.0067 81.1414 21.0059 81.3206 21.0059 81.5H29.0059C29.0059 81.3457 29.0066 81.1916 29.008 81.0376L21.0084 80.9624ZM21.0059 81.5C21.0059 111.485 44.6219 136 74.0059 136V128C49.2659 128 29.0059 107.296 29.0059 81.5H21.0059ZM74.0059 136C103.39 136 127.006 111.485 127.006 81.5H119.006C119.006 107.296 98.7458 128 74.0059 128V136ZM127.006 81.5C127.006 81.3206 127.005 81.1414 127.003 80.9624L119.004 81.0376C119.005 81.1916 119.006 81.3457 119.006 81.5H127.006ZM123.004 77H119.003V85H123.004V77ZM123.006 81.5C123.006 81.3196 123.005 81.1394 123.003 80.9593L115.004 81.0407C115.005 81.1936 115.006 81.3467 115.006 81.5H123.006ZM74.0059 132C101.065 132 123.006 109.393 123.006 81.5H115.006C115.006 105.198 96.4268 124 74.0059 124V132ZM25.0059 81.5C25.0059 109.393 46.9469 132 74.0059 132V124C51.5849 124 33.0059 105.198 33.0059 81.5H25.0059ZM25.0086 80.9594C25.0068 81.1393 25.0059 81.3196 25.0059 81.5H33.0059C33.0059 81.3467 33.0066 81.1936 33.0082 81.0406L25.0086 80.9594ZM29.0084 77H25.0082V85H29.0084V77Z" fill="#D6FDC6" mask="url(#path-12-inside-1_1914_88)"/>
<line x1="24.7108" y1="8.94464" x2="31.4642" y2="14.7145" stroke="#C4C4C4" stroke-linecap="round"/>
<line x1="21.5323" y1="19.5279" x2="30.4017" y2="20.0102" stroke="#C4C4C4" stroke-linecap="round"/>
<line x1="9.5" y1="99.5" x2="12.5" y2="99.5" stroke="#E7E6E6" stroke-linecap="round"/>
<line x1="14.5" y1="99.5" x2="17.5" y2="99.5" stroke="#E7E6E6" stroke-linecap="round"/>
<line x1="13.502" y1="103.5" x2="13.502" y2="100.5" stroke="#E7E6E6" stroke-linecap="round"/>
<line x1="13.502" y1="98.5" x2="13.502" y2="95.5" stroke="#E7E6E6" stroke-linecap="round"/>
<line x1="135.5" y1="22.5" x2="138.5" y2="22.5" stroke="#E7E6E6" stroke-linecap="round"/>
<line x1="140.5" y1="22.5" x2="143.5" y2="22.5" stroke="#E7E6E6" stroke-linecap="round"/>
<line x1="139.502" y1="26.5" x2="139.502" y2="23.5" stroke="#E7E6E6" stroke-linecap="round"/>
<line x1="139.502" y1="21.5" x2="139.502" y2="18.5" stroke="#E7E6E6" stroke-linecap="round"/>
<path d="M69.0059 52C72.4937 55.2902 74.7619 55.3914 78.2308 52" stroke="#C4C4C4" stroke-linecap="round"/>
<path d="M57.1318 42.7222C60.3451 41.7885 60.3451 41.7885 61.5882 39.3824" stroke="#C4C4C4" stroke-linecap="round"/>
<path d="M89.9932 42.3398C86.7799 41.4062 86.7799 41.4062 85.5368 39.0001" stroke="#C4C4C4" stroke-linecap="round"/>
<line x1="34.5059" y1="3.74781" x2="36.0049" y2="12.503" stroke="#C4C4C4" stroke-linecap="round"/>
<circle cx="62.5059" cy="45.5" r="1.5" fill="#C4C4C4"/>
<circle cx="84.5059" cy="45.5" r="1.5" fill="#C4C4C4"/>
<circle cx="6" cy="47" r="5.5" stroke="#E7E6E6"/>
<circle cx="126.5" cy="119.5" r="3" stroke="#E7E6E6"/>
<defs>
<filter id="filter0_d_1914_88" x="21.0059" y="30" width="106" height="109" filterUnits="userSpaceOnUse" color-interpolation-filters="sRGB">
<feFlood flood-opacity="0" result="BackgroundImageFix"/>
<feColorMatrix in="SourceAlpha" type="matrix" values="0 0 0 0 0 0 0 0 0 0 0 0 0 0 0 0 0 0 127 0" result="hardAlpha"/>
<feOffset dy="4"/>
<feGaussianBlur stdDeviation="2"/>
<feComposite in2="hardAlpha" operator="out"/>
<feColorMatrix type="matrix" values="0 0 0 0 0 0 0 0 0 0 0 0 0 0 0 0 0 0 0.25 0"/>
<feBlend mode="normal" in2="BackgroundImageFix" result="effect1_dropShadow_1914_88"/>
<feBlend mode="normal" in="SourceGraphic" in2="effect1_dropShadow_1914_88" result="shape"/>
</filter>
</defs>
</svg>
